<!DOCTYPE svg PUBLIC "-//W3C//DTD SVG 1.1//EN" "http://www.w3.org/Graphics/SVG/1.1/DTD/svg11.dtd"><svg xmlns:ev="http://www.w3.org/2001/xml-events" xmlns:xlink="http://www.w3.org/1999/xlink" xmlns="http://www.w3.org/2000/svg" xmlns:v="http://schemas.microsoft.com/visio/2003/SVGExtensions/" width="488.89248" height="303.696" viewBox="0 0 366.669 227.772" xml:space="preserve" color-interpolation-filters="sRGB" class="st11" version="1.1">
	

	<style type="text/css">
	<![CDATA[
		.st1 {fill:#ffffff;stroke:#000000;stroke-linecap:butt;stroke-width:0.5}
		.st2 {fill:#000000;font-family:Arial,Helvetica,sans-serif;font-size:0.666664em}
		.st3 {fill:#c0c0c0;stroke:#000000;stroke-linecap:butt;stroke-width:0.5}
		.st4 {fill:#000000;font-family:Arial,Helvetica,sans-serif;font-size:0.75em}
		.st5 {fill:none;stroke:none;stroke-linecap:butt;stroke-width:0.5}
		.st6 {fill:#c8d6e6;stroke:#000000;stroke-linecap:butt;stroke-width:0.5}
		.st7 {fill:#ccffff;stroke:#000000;stroke-linecap:butt;stroke-width:0.5}
		.st8 {stroke:#000000;stroke-dasharray:4,2;stroke-linecap:butt;stroke-width:0.5}
		.st9 {fill:#000000;font-family:Arial,Helvetica,sans-serif;font-size:1.99999em;font-weight:bold}
		.st10 {fill:#fdefe3;stroke:#000000;stroke-linecap:butt;stroke-width:0.5}
		.st11 {fill:none;fill-rule:evenodd;font-size:12px;overflow:visible;stroke-linecap:square;stroke-miterlimit:3}
	]]>
	</style>

	<g>
		<title>Page-1</title>
		
		<g id="shape52-1" transform="translate(0.5,-77.0354)">
			<title>Sheet.52</title>
			<desc>Unused</desc>
			
			
			<rect x="0" y="210.764" width="181.417" height="17.0079" class="st1" />
			<text x="40.69" y="221.67" class="st2">Unused</text>		</g>
		<g id="shape53-4" transform="translate(0.5,-57.1929)">
			<title>Sheet.53</title>
			<desc>Unused</desc>
			
			
			<rect x="0" y="210.764" width="272.126" height="17.0079" class="st1" />
			<text x="40.69" y="221.67" class="st2">Unused</text>		</g>
		<g id="shape54-7" transform="translate(0.5,-37.3504)">
			<title>Sheet.54</title>
			<desc>Unused</desc>
			
			
			<rect x="0" y="210.764" width="317.48" height="17.0079" class="st1" />
			<text x="40.69" y="221.67" class="st2">Unused</text>		</g>
		<g id="shape47-10" transform="translate(0.5,-210.264)">
			<title>Sheet.47</title>
			<desc>Unused</desc>
			
			
			<rect x="0" y="210.764" width="181.417" height="17.0079" class="st1" />
			<text x="40.69" y="221.67" class="st2">Unused</text>		</g>
		<g id="shape48-13" transform="translate(0.5,-190.421)">
			<title>Sheet.48</title>
			<desc>Unused</desc>
			
			
			<rect x="0" y="210.764" width="272.126" height="17.0079" class="st1" />
			<text x="40.69" y="221.67" class="st2">Unused</text>		</g>
		<g id="shape50-16" transform="translate(0.5,-170.579)">
			<title>Sheet.50</title>
			<desc>Unused</desc>
			
			
			<rect x="0" y="210.764" width="317.48" height="17.0079" class="st1" />
			<text x="40.69" y="221.67" class="st2">Unused</text>		</g>
		<g id="shape2-19" transform="translate(181.917,-77.0354)">
			<title>Block.2</title>
			<desc>D0</desc>
			
			
			
			
			<rect x="0" y="210.764" width="181.417" height="17.0079" class="st3" />
			<text x="84.96" y="221.97" class="st4">D0</text>		</g>
		<g id="shape6-22" transform="translate(0.5,-1.91732)">
			<title>Sheet.6</title>
			<desc>127</desc>
			
			
			<rect x="0" y="216.433" width="17.0079" height="11.3386" class="st5" />
			<text x="1" y="224.5" class="st2">127</text>		</g>
		<g id="shape7-25" transform="translate(354.831,-0.5)">
			<title>Sheet.7</title>
			<desc>0</desc>
			
			
			<rect x="0" y="216.433" width="11.3386" height="11.3386" class="st5" />
			<text x="3.44" y="224.5" class="st2">0</text>		</g>
		<g id="shape8-28" transform="translate(181.917,-0.5)">
			<title>Sheet.8</title>
			<desc>63</desc>
			
			
			<rect x="0" y="216.433" width="12.7559" height="11.3386" class="st5" />
			<text x="1.93" y="224.5" class="st2">63</text>		</g>
		<g id="shape9-31" transform="translate(272.626,-0.5)">
			<title>Sheet.9</title>
			<desc>31</desc>
			
			
			<rect x="0" y="216.433" width="11.3386" height="11.3386" class="st5" />
			<text x="1.22" y="224.5" class="st2">31</text>		</g>
		<g id="shape10-34" transform="translate(317.98,-0.5)">
			<title>Sheet.10</title>
			<desc>15</desc>
			
			
			<rect x="0" y="216.433" width="11.3386" height="11.3386" class="st5" />
			<text x="1.22" y="224.5" class="st2">15</text>		</g>
		<g id="shape17-37" transform="translate(272.626,-57.1929)">
			<title>Sheet.17</title>
			<desc>S0</desc>
			
			
			<rect x="0" y="210.764" width="90.7087" height="17.0079" class="st6" />
			<text x="39.85" y="221.97" class="st4">S0</text>		</g>
		<g id="shape20-40" transform="translate(0.5,-11.8386)">
			<title>Block.20</title>
			<desc>Register V0</desc>
			
			
			
			
			<rect x="0" y="210.764" width="362.835" height="17.0079" class="st7" />
			<text x="104.52" y="221.97" class="st4">Register V0      </text>		</g>
		<g id="shape24-43" transform="translate(545.752,176.248) rotate(90)">
			<title>Sheet.24</title>
			<path d="M0 227.77 L39.69 227.77" class="st8" />
		</g>
		<g id="shape25-46" transform="translate(306.642,-0.5)">
			<title>Sheet.25</title>
			<desc>16</desc>
			
			
			<rect x="0" y="216.433" width="11.3386" height="11.3386" class="st5" />
			<text x="1.22" y="224.5" class="st2">16</text>		</g>
		<g id="shape26-49" transform="translate(261.287,-0.5)">
			<title>Sheet.26</title>
			<desc>32</desc>
			
			
			<rect x="0" y="216.433" width="11.3386" height="11.3386" class="st5" />
			<text x="1.22" y="224.5" class="st2">32</text>		</g>
		<g id="shape27-52" transform="translate(500.398,156.406) rotate(90)">
			<title>Sheet.27</title>
			<path d="M0 227.77 L59.53 227.77" class="st8" />
		</g>
		<g id="shape28-55" transform="translate(170.579,-0.5)">
			<title>Sheet.28</title>
			<desc>64</desc>
			
			
			<rect x="0" y="216.433" width="11.3386" height="11.3386" class="st5" />
			<text x="1.22" y="224.5" class="st2">64</text>		</g>
		<g id="shape23-58" transform="translate(591.106,133.728) rotate(90)">
			<title>Sheet.23</title>
			<path d="M0 227.77 L82.2 227.77" class="st8" />
		</g>
		<g id="shape29-61" transform="translate(409.689,136.563) rotate(90)">
			<title>Sheet.29</title>
			<path d="M0 227.77 L79.37 227.77" class="st8" />
		</g>
		<g id="shape30-64" transform="translate(228.272,133.728) rotate(90)">
			<title>Sheet.30</title>
			<path d="M0 227.77 L82.2 227.77" class="st8" />
		</g>
		<g id="shape18-67" transform="translate(160.134,-119.555)">
			<title>Sheet.18</title>
			<desc>...</desc>
			
			
			<rect x="0" y="217.449" width="37.8976" height="10.3228" class="st5" />
			<text x="8.95" y="229.81" class="st9">...</text>		</g>
		<g id="shape12-70" transform="translate(181.917,-210.264)">
			<title>Block.12</title>
			<desc>D31</desc>
			
			
			
			
			<rect x="0" y="210.764" width="181.417" height="17.0079" class="st3" />
			<text x="82.45" y="221.97" class="st4">D31</text>		</g>
		<g id="shape14-73" transform="translate(0.5,-135.146)">
			<title>Sheet.14</title>
			<desc>127</desc>
			
			
			<rect x="0" y="216.433" width="17.0079" height="11.3386" class="st5" />
			<text x="1" y="224.5" class="st2">127</text>		</g>
		<g id="shape15-76" transform="translate(354.831,-133.728)">
			<title>Sheet.15</title>
			<desc>0</desc>
			
			
			<rect x="0" y="216.433" width="11.3386" height="11.3386" class="st5" />
			<text x="3.44" y="224.5" class="st2">0</text>		</g>
		<g id="shape16-79" transform="translate(181.917,-133.728)">
			<title>Sheet.16</title>
			<desc>63</desc>
			
			
			<rect x="0" y="216.433" width="12.7559" height="11.3386" class="st5" />
			<text x="1.93" y="224.5" class="st2">63</text>		</g>
		<g id="shape31-82" transform="translate(272.626,-133.728)">
			<title>Sheet.31</title>
			<desc>31</desc>
			
			
			<rect x="0" y="216.433" width="11.3386" height="11.3386" class="st5" />
			<text x="1.22" y="224.5" class="st2">31</text>		</g>
		<g id="shape32-85" transform="translate(317.98,-133.728)">
			<title>Sheet.32</title>
			<desc>15</desc>
			
			
			<rect x="0" y="216.433" width="11.3386" height="11.3386" class="st5" />
			<text x="1.22" y="224.5" class="st2">15</text>		</g>
		<g id="shape34-88" transform="translate(272.626,-190.421)">
			<title>Sheet.34</title>
			<desc>S31</desc>
			
			
			<rect x="0" y="210.764" width="90.7087" height="17.0079" class="st6" />
			<text x="37.35" y="221.97" class="st4">S31</text>		</g>
		<g id="shape36-91" transform="translate(0.5,-145.067)">
			<title>Block.36</title>
			<desc>Register V31</desc>
			
			
			
			
			<rect x="0" y="210.764" width="362.835" height="17.0079" class="st7" />
			<text x="104.52" y="221.97" class="st4">Register V31      </text>		</g>
		<g id="shape39-94" transform="translate(545.752,43.0197) rotate(90)">
			<title>Sheet.39</title>
			<path d="M0 227.77 L39.69 227.77" class="st8" />
		</g>
		<g id="shape40-97" transform="translate(306.642,-133.728)">
			<title>Sheet.40</title>
			<desc>16</desc>
			
			
			<rect x="0" y="216.433" width="11.3386" height="11.3386" class="st5" />
			<text x="1.22" y="224.5" class="st2">16</text>		</g>
		<g id="shape41-100" transform="translate(261.287,-133.728)">
			<title>Sheet.41</title>
			<desc>32</desc>
			
			
			<rect x="0" y="216.433" width="11.3386" height="11.3386" class="st5" />
			<text x="1.22" y="224.5" class="st2">32</text>		</g>
		<g id="shape42-103" transform="translate(500.398,23.1772) rotate(90)">
			<title>Sheet.42</title>
			<path d="M0 227.77 L59.53 227.77" class="st8" />
		</g>
		<g id="shape43-106" transform="translate(170.579,-133.728)">
			<title>Sheet.43</title>
			<desc>64</desc>
			
			
			<rect x="0" y="216.433" width="11.3386" height="11.3386" class="st5" />
			<text x="1.22" y="224.5" class="st2">64</text>		</g>
		<g id="shape44-109" transform="translate(591.106,0.5) rotate(90)">
			<title>Sheet.44</title>
			<path d="M0 227.77 L82.2 227.77" class="st8" />
		</g>
		<g id="shape45-112" transform="translate(409.689,6.16929) rotate(90)">
			<title>Sheet.45</title>
			<path d="M0 227.77 L76.54 227.77" class="st8" />
		</g>
		<g id="shape46-115" transform="translate(228.272,0.5) rotate(90)">
			<title>Sheet.46</title>
			<path d="M0 227.77 L82.2 227.77" class="st8" />
		</g>
		<g id="shape55-118" transform="translate(317.98,-170.579)">
			<title>Sheet.55</title>
			<desc>H31</desc>
			
			
			<rect x="0" y="210.764" width="45.3543" height="17.0079" class="st10" />
			<text x="15.34" y="221.67" class="st2">H31</text>		</g>
		<g id="shape13-121" transform="translate(317.98,-37.3504)">
			<title>Sheet.13</title>
			<desc>H0</desc>
			
			
			<rect x="0" y="210.764" width="45.3543" height="17.0079" class="st10" />
			<text x="17.56" y="221.67" class="st2">H0</text>		</g>
	</g>
</svg>
