<!DOCTYPE svg PUBLIC "-//W3C//DTD SVG 1.1//EN" "http://www.w3.org/Graphics/SVG/1.1/DTD/svg11.dtd"><svg xmlns:ev="http://www.w3.org/2001/xml-events" xmlns:xlink="http://www.w3.org/1999/xlink" xmlns="http://www.w3.org/2000/svg" xmlns:v="http://schemas.microsoft.com/visio/2003/SVGExtensions/" width="569.63328" height="205.1616" viewBox="0 0 427.225 153.871" xml:space="preserve" color-interpolation-filters="sRGB" class="st8" version="1.1">
	

	<style type="text/css">
	<![CDATA[
		.st1 {fill:#000000;font-family:Arial,Helvetica,sans-serif;font-size:0.499992em}
		.st2 {fill:none;stroke:none;stroke-linecap:butt;stroke-width:0.5}
		.st3 {fill:#000000;font-family:Arial,Helvetica,sans-serif;font-size:0.666664em}
		.st4 {fill:#ffffff;stroke:none;stroke-linecap:round;stroke-linejoin:round;stroke-width:0.0169691}
		.st5 {stroke:#000000;stroke-linecap:butt;stroke-width:0.8}
		.st6 {fill:#ffffff;visibility:hidden}
		.st7 {fill:#ffffff;stroke:#000000;stroke-linecap:butt;stroke-width:0.8}
		.st8 {fill:none;fill-rule:evenodd;font-size:12px;overflow:visible;stroke-linecap:square;stroke-miterlimit:3}
	]]>
	</style>

	<g>
		<title>Page-1</title>
		
		<g id="shape33-1" transform="translate(86.2673,-20.6425)">
			<title>Sheet.33</title>
			<desc>127</desc>
			
			
			<text x="0.66" y="151.42" class="st1">127</text>		</g>
		<g id="shape34-3" transform="translate(117.448,-20.6425)">
			<title>Sheet.34</title>
			<desc>112</desc>
			
			
			<text x="0" y="151.42" class="st1">112</text>		</g>
		<g id="shape35-5" transform="translate(128.787,-20.6425)">
			<title>Sheet.35</title>
			<desc>111</desc>
			
			
			<text x="2.2" y="151.42" class="st1">111</text>		</g>
		<g id="shape36-7" transform="translate(162.803,-20.6425)">
			<title>Sheet.36</title>
			<desc>96</desc>
			
			
			<text x="0" y="151.42" class="st1">96</text>		</g>
		<g id="shape37-9" transform="translate(171.838,-20.6425)">
			<title>Sheet.37</title>
			<desc>95</desc>
			
			
			<text x="2.07" y="151.42" class="st1">95</text>		</g>
		<g id="shape38-11" transform="translate(204.82,-20.6425)">
			<title>Sheet.38</title>
			<desc>80</desc>
			
			
			<text x="1.17" y="151.42" class="st1">80</text>		</g>
		<g id="shape39-13" transform="translate(214.358,-20.6425)">
			<title>Sheet.39</title>
			<desc>79</desc>
			
			
			<text x="2.07" y="151.42" class="st1">79</text>		</g>
		<g id="shape40-15" transform="translate(245.539,-20.6425)">
			<title>Sheet.40</title>
			<desc>64</desc>
			
			
			<text x="2.07" y="151.42" class="st1">64</text>		</g>
		<g id="shape41-17" transform="translate(256.346,-20.6425)">
			<title>Sheet.41</title>
			<desc>63</desc>
			
			
			<text x="2.07" y="151.42" class="st1">63</text>		</g>
		<g id="shape42-19" transform="translate(288.59,-20.6425)">
			<title>Sheet.42</title>
			<desc>48</desc>
			
			
			<text x="2.07" y="151.42" class="st1">48</text>		</g>
		<g id="shape43-21" transform="translate(299.397,-20.6425)">
			<title>Sheet.43</title>
			<desc>47</desc>
			
			
			<text x="2.07" y="151.42" class="st1">47</text>		</g>
		<g id="shape44-23" transform="translate(330.578,-20.6425)">
			<title>Sheet.44</title>
			<desc>32</desc>
			
			
			<text x="2.07" y="151.42" class="st1">32</text>		</g>
		<g id="shape45-25" transform="translate(341.385,-20.6425)">
			<title>Sheet.45</title>
			<desc>31</desc>
			
			
			<text x="2.07" y="151.42" class="st1">31</text>		</g>
		<g id="shape46-27" transform="translate(372.567,-20.6425)">
			<title>Sheet.46</title>
			<desc>16</desc>
			
			
			<text x="2.07" y="151.42" class="st1">16</text>		</g>
		<g id="shape47-29" transform="translate(383.374,-20.6425)">
			<title>Sheet.47</title>
			<desc>15</desc>
			
			
			<text x="1.27" y="151.42" class="st1">15</text>		</g>
		<g id="shape48-31" transform="translate(421.021,-20.6425)">
			<title>Sheet.48</title>
			<desc>0</desc>
			
			
			<text x="1.03" y="151.42" class="st1">0</text>		</g>
		<g id="shape49-33" transform="translate(25.3224,-0.8)">
			<title>Sheet.49</title>
			<desc>16 x 8-bit lanes</desc>
			
			
			<rect x="0" y="134.028" width="59.5276" height="19.8425" class="st2" />
			<text x="1" y="146.35" class="st3">16 x 8-bit lanes</text>		</g>
		<g id="group50-36" transform="translate(384.614,-0.8)">
			<title>Sheet.50</title>
			<g id="shape51-37" transform="translate(20.5512,5.68434E-014)">
				<title>Sheet.51</title>
				<desc>0</desc>
				
				
				<rect x="0" y="134.028" width="21.2598" height="19.8425" class="st4" />
				<text x="8.41" y="146.35" class="st3">0</text>			</g>
			<g id="shape52-40">
				<title>Sheet.52</title>
				<desc>1</desc>
				
				
				<rect x="0" y="134.028" width="21.2598" height="19.8425" class="st4" />
				<text x="8.41" y="146.35" class="st3">1</text>			</g>
			<g id="shape53-43">
				<title>Sheet.53</title>
				<path d="M0 134.03 L0 153.87" class="st5" />
			</g>
			<g id="shape54-46" transform="translate(21.2598,0)">
				<title>Sheet.54</title>
				<path d="M0 134.03 L0 153.87" class="st5" />
			</g>
		</g>
		<g id="shape55-49" transform="translate(362.645,-0.8)">
			<title>Sheet.55</title>
			<desc>2</desc>
			
			
			<rect x="0" y="134.028" width="21.2598" height="19.8425" class="st4" />
			<text x="8.41" y="146.35" class="st3">2</text>		</g>
		<g id="shape56-52" transform="translate(342.094,-0.8)">
			<title>Sheet.56</title>
			<desc>3</desc>
			
			
			<rect x="0" y="134.028" width="21.2598" height="19.8425" class="st4" />
			<text x="8.41" y="146.35" class="st3">3</text>		</g>
		<g id="shape57-55" transform="translate(342.094,-0.8)">
			<title>Sheet.57</title>
			<path d="M0 134.03 L0 153.87" class="st5" />
		</g>
		<g id="shape58-58" transform="translate(363.354,-0.8)">
			<title>Sheet.58</title>
			<path d="M0 134.03 L0 153.87" class="st5" />
		</g>
		<g id="shape59-61" transform="translate(320.126,-0.8)">
			<title>Sheet.59</title>
			<desc>4</desc>
			
			
			<rect x="0" y="134.028" width="21.2598" height="19.8425" class="st4" />
			<text x="8.41" y="146.35" class="st3">4</text>		</g>
		<g id="shape60-64" transform="translate(299.574,-0.8)">
			<title>Sheet.60</title>
			<desc>5</desc>
			
			
			<rect x="0" y="134.028" width="21.2598" height="19.8425" class="st4" />
			<text x="8.41" y="146.35" class="st3">5</text>		</g>
		<g id="shape61-67" transform="translate(299.574,-0.8)">
			<title>Sheet.61</title>
			<path d="M0 134.03 L0 153.87" class="st5" />
		</g>
		<g id="shape62-70" transform="translate(320.834,-0.8)">
			<title>Sheet.62</title>
			<path d="M0 134.03 L0 153.87" class="st5" />
		</g>
		<g id="shape63-73" transform="translate(277.606,-0.8)">
			<title>Sheet.63</title>
			<desc>6</desc>
			
			
			<rect x="0" y="134.028" width="21.2598" height="19.8425" class="st4" />
			<text x="8.41" y="146.35" class="st3">6</text>		</g>
		<g id="shape64-76" transform="translate(256.346,-0.8)">
			<title>Sheet.64</title>
			<desc>7</desc>
			
			
			<rect x="0" y="134.028" width="21.2598" height="19.8425" class="st4" />
			<text x="8.41" y="146.35" class="st3">7</text>		</g>
		<g id="shape65-79" transform="translate(256.346,-0.8)">
			<title>Sheet.65</title>
			<path d="M0 134.03 L0 153.87" class="st5" />
		</g>
		<g id="shape66-82" transform="translate(277.606,-0.8)">
			<title>Sheet.66</title>
			<path d="M0 134.03 L0 153.87" class="st5" />
		</g>
		<g id="shape67-85" transform="translate(234.378,-0.8)">
			<title>Sheet.67</title>
			<desc>8</desc>
			
			
			<rect x="0" y="134.028" width="21.2598" height="19.8425" class="st4" />
			<text x="8.41" y="146.35" class="st3">8</text>		</g>
		<g id="shape68-88" transform="translate(213.826,-0.8)">
			<title>Sheet.68</title>
			<desc>9</desc>
			
			
			<rect x="0" y="134.028" width="21.2598" height="19.8425" class="st4" />
			<text x="8.41" y="146.35" class="st3">9</text>		</g>
		<g id="shape69-91" transform="translate(213.826,-0.8)">
			<title>Sheet.69</title>
			<path d="M0 134.03 L0 153.87" class="st5" />
		</g>
		<g id="shape70-94" transform="translate(235.086,-0.8)">
			<title>Sheet.70</title>
			<path d="M0 134.03 L0 153.87" class="st5" />
		</g>
		<g id="shape71-97" transform="translate(191.858,-0.8)">
			<title>Sheet.71</title>
			<desc>10</desc>
			
			
			<rect x="0" y="134.028" width="21.2598" height="19.8425" class="st4" />
			<text x="6.18" y="146.35" class="st3">10</text>		</g>
		<g id="shape72-100" transform="translate(171.307,-0.8)">
			<title>Sheet.72</title>
			<desc>11</desc>
			
			
			<rect x="0" y="134.028" width="21.2598" height="19.8425" class="st4" />
			<text x="6.18" y="146.35" class="st3">11</text>		</g>
		<g id="shape73-103" transform="translate(171.307,-0.8)">
			<title>Sheet.73</title>
			<path d="M0 134.03 L0 153.87" class="st5" />
		</g>
		<g id="shape74-106" transform="translate(192.567,-0.8)">
			<title>Sheet.74</title>
			<path d="M0 134.03 L0 153.87" class="st5" />
		</g>
		<g id="shape75-109" transform="translate(149.338,-0.8)">
			<title>Sheet.75</title>
			<desc>12</desc>
			
			
			<rect x="0" y="134.028" width="21.2598" height="19.8425" class="st4" />
			<text x="6.18" y="146.35" class="st3">12</text>		</g>
		<g id="shape76-112" transform="translate(128.787,-0.8)">
			<title>Sheet.76</title>
			<desc>13</desc>
			
			
			<rect x="0" y="134.028" width="21.2598" height="19.8425" class="st4" />
			<text x="6.18" y="146.35" class="st3">13</text>		</g>
		<g id="shape77-115" transform="translate(128.787,-0.8)">
			<title>Sheet.77</title>
			<path d="M0 134.03 L0 153.87" class="st5" />
		</g>
		<g id="shape78-118" transform="translate(150.047,-0.8)">
			<title>Sheet.78</title>
			<path d="M0 134.03 L0 153.87" class="st5" />
		</g>
		<g id="shape79-121" transform="translate(106.819,-0.8)">
			<title>Sheet.79</title>
			<desc>14</desc>
			
			
			<rect x="0" y="134.028" width="21.2598" height="19.8425" class="st4" />
			<text x="6.18" y="146.35" class="st3">14</text>		</g>
		<g id="shape80-124" transform="translate(86.2673,-0.8)">
			<title>Sheet.80</title>
			<desc>15</desc>
			
			
			<rect x="0" y="134.028" width="21.2598" height="19.8425" class="st4" />
			<text x="6.18" y="146.35" class="st3">15</text>		</g>
		<g id="shape81-127" transform="translate(107.527,-0.8)">
			<title>Sheet.81</title>
			<path d="M0 134.03 L0 153.87" class="st5" />
		</g>
		<g id="shape82-130" transform="translate(86.2673,-0.8)">
			<title>Sheet.82</title>
			<rect x="0" y="134.028" width="340.157" height="19.8425" class="st6" />
			<rect x="0" y="134.028" width="340.157" height="19.8425" class="st5" />
		</g>
		<g id="shape83-133" transform="translate(383.905,-31.9811)">
			<title>Sheet.83</title>
			<desc>0</desc>
			
			
			<rect x="0" y="134.028" width="42.5197" height="19.8425" class="st4" />
			<text x="19.04" y="146.35" class="st3">0</text>		</g>
		<g id="shape84-136" transform="translate(341.385,-31.9811)">
			<title>Sheet.84</title>
			<desc>1</desc>
			
			
			<rect x="0" y="134.028" width="42.5197" height="19.8425" class="st4" />
			<text x="19.04" y="146.35" class="st3">1</text>		</g>
		<g id="shape85-139" transform="translate(298.866,-31.9811)">
			<title>Sheet.85</title>
			<desc>2</desc>
			
			
			<rect x="0" y="134.028" width="42.5197" height="19.8425" class="st4" />
			<text x="19.04" y="146.35" class="st3">2</text>		</g>
		<g id="shape86-142" transform="translate(256.346,-31.9811)">
			<title>Sheet.86</title>
			<desc>3</desc>
			
			
			<rect x="0" y="134.028" width="42.5197" height="19.8425" class="st4" />
			<text x="19.04" y="146.35" class="st3">3</text>		</g>
		<g id="shape87-145" transform="translate(213.826,-31.9811)">
			<title>Sheet.87</title>
			<desc>4</desc>
			
			
			<rect x="0" y="134.028" width="42.5197" height="19.8425" class="st4" />
			<text x="19.04" y="146.35" class="st3">4</text>		</g>
		<g id="shape88-148" transform="translate(171.307,-31.9811)">
			<title>Sheet.88</title>
			<desc>5</desc>
			
			
			<rect x="0" y="134.028" width="42.5197" height="19.8425" class="st4" />
			<text x="19.04" y="146.35" class="st3">5</text>		</g>
		<g id="shape89-151" transform="translate(128.787,-31.9811)">
			<title>Sheet.89</title>
			<desc>6</desc>
			
			
			<rect x="0" y="134.028" width="42.5197" height="19.8425" class="st4" />
			<text x="19.04" y="146.35" class="st3">6</text>		</g>
		<g id="shape90-154" transform="translate(86.2673,-31.9811)">
			<title>Sheet.90</title>
			<desc>7</desc>
			
			
			<rect x="0" y="134.028" width="42.5197" height="19.8425" class="st4" />
			<text x="19.04" y="146.35" class="st3">7</text>		</g>
		<g id="shape91-157" transform="translate(256.346,-31.9811)">
			<title>Sheet.91</title>
			<path d="M0 134.03 L0 153.87" class="st5" />
		</g>
		<g id="shape92-160" transform="translate(341.385,-31.9811)">
			<title>Sheet.92</title>
			<path d="M0 134.03 L0 153.87" class="st5" />
		</g>
		<g id="shape93-163" transform="translate(86.2673,-31.9811)">
			<title>Sheet.93</title>
			<rect x="0" y="134.028" width="340.157" height="19.8425" class="st6" />
			<rect x="0" y="134.028" width="340.157" height="19.8425" class="st5" />
		</g>
		<g id="shape94-166" transform="translate(213.826,-31.9811)">
			<title>Sheet.94</title>
			<path d="M0 134.03 L0 153.87" class="st5" />
		</g>
		<g id="shape95-169" transform="translate(298.866,-31.9811)">
			<title>Sheet.95</title>
			<path d="M0 134.03 L0 153.87" class="st5" />
		</g>
		<g id="shape96-172" transform="translate(383.905,-31.9811)">
			<title>Sheet.96</title>
			<path d="M0 134.03 L0 153.87" class="st5" />
		</g>
		<g id="shape97-175" transform="translate(86.2673,-51.8236)">
			<title>Sheet.97</title>
			<desc>127</desc>
			
			
			<text x="0.66" y="151.42" class="st1">127</text>		</g>
		<g id="shape98-177" transform="translate(117.448,-51.8236)">
			<title>Sheet.98</title>
			<desc>112</desc>
			
			
			<text x="0" y="151.42" class="st1">112</text>		</g>
		<g id="shape99-179" transform="translate(128.787,-51.8236)">
			<title>Sheet.99</title>
			<desc>111</desc>
			
			
			<text x="2.2" y="151.42" class="st1">111</text>		</g>
		<g id="shape100-181" transform="translate(162.803,-51.8236)">
			<title>Sheet.100</title>
			<desc>96</desc>
			
			
			<text x="0" y="151.42" class="st1">96</text>		</g>
		<g id="shape101-183" transform="translate(171.838,-51.8236)">
			<title>Sheet.101</title>
			<desc>95</desc>
			
			
			<text x="2.07" y="151.42" class="st1">95</text>		</g>
		<g id="shape102-185" transform="translate(204.82,-51.8236)">
			<title>Sheet.102</title>
			<desc>80</desc>
			
			
			<text x="1.17" y="151.42" class="st1">80</text>		</g>
		<g id="shape103-187" transform="translate(214.358,-51.8236)">
			<title>Sheet.103</title>
			<desc>79</desc>
			
			
			<text x="2.07" y="151.42" class="st1">79</text>		</g>
		<g id="shape104-189" transform="translate(245.539,-51.8236)">
			<title>Sheet.104</title>
			<desc>64</desc>
			
			
			<text x="2.07" y="151.42" class="st1">64</text>		</g>
		<g id="shape105-191" transform="translate(256.346,-51.8236)">
			<title>Sheet.105</title>
			<desc>63</desc>
			
			
			<text x="2.07" y="151.42" class="st1">63</text>		</g>
		<g id="shape106-193" transform="translate(288.59,-51.8236)">
			<title>Sheet.106</title>
			<desc>48</desc>
			
			
			<text x="2.07" y="151.42" class="st1">48</text>		</g>
		<g id="shape107-195" transform="translate(299.397,-51.8236)">
			<title>Sheet.107</title>
			<desc>47</desc>
			
			
			<text x="2.07" y="151.42" class="st1">47</text>		</g>
		<g id="shape108-197" transform="translate(330.578,-51.8236)">
			<title>Sheet.108</title>
			<desc>32</desc>
			
			
			<text x="2.07" y="151.42" class="st1">32</text>		</g>
		<g id="shape109-199" transform="translate(341.385,-51.8236)">
			<title>Sheet.109</title>
			<desc>31</desc>
			
			
			<text x="2.07" y="151.42" class="st1">31</text>		</g>
		<g id="shape110-201" transform="translate(372.567,-51.8236)">
			<title>Sheet.110</title>
			<desc>16</desc>
			
			
			<text x="2.07" y="151.42" class="st1">16</text>		</g>
		<g id="shape111-203" transform="translate(383.374,-51.8236)">
			<title>Sheet.111</title>
			<desc>15</desc>
			
			
			<text x="1.27" y="151.42" class="st1">15</text>		</g>
		<g id="shape112-205" transform="translate(421.021,-51.8236)">
			<title>Sheet.112</title>
			<desc>0</desc>
			
			
			<text x="1.03" y="151.42" class="st1">0</text>		</g>
		<g id="shape113-207" transform="translate(171.976,-31.9811)">
			<title>Sheet.113</title>
			<path d="M0 134.03 L0 153.87" class="st5" />
		</g>
		<g id="shape114-210" transform="translate(128.229,-31.9811)">
			<title>Sheet.114</title>
			<path d="M0 134.03 L0 153.87" class="st5" />
		</g>
		<g id="shape115-213" transform="translate(25.3224,-31.9811)">
			<title>Sheet.115</title>
			<desc>8 x 16-bit lanes</desc>
			
			
			<rect x="0" y="134.028" width="59.5276" height="19.8425" class="st2" />
			<text x="1" y="146.35" class="st3">8 x 16-bit lanes</text>		</g>
		<g id="shape116-216" transform="translate(341.385,-63.1622)">
			<title>Sheet.116</title>
			<desc>0</desc>
			
			
			<rect x="0" y="134.028" width="85.0394" height="19.8425" class="st4" />
			<text x="40.3" y="146.35" class="st3">0</text>		</g>
		<g id="shape117-219" transform="translate(256.346,-63.1622)">
			<title>Sheet.117</title>
			<desc>1</desc>
			
			
			<rect x="0" y="134.028" width="85.0394" height="19.8425" class="st4" />
			<text x="40.3" y="146.35" class="st3">1</text>		</g>
		<g id="shape118-222" transform="translate(172.724,-63.1622)">
			<title>Sheet.118</title>
			<desc>2</desc>
			
			
			<rect x="0" y="134.028" width="83.622" height="19.8425" class="st4" />
			<text x="39.59" y="146.35" class="st3">2</text>		</g>
		<g id="shape119-225" transform="translate(86.2673,-63.1622)">
			<title>Sheet.119</title>
			<desc>3</desc>
			
			
			<rect x="0" y="134.028" width="85.0394" height="19.8425" class="st4" />
			<text x="40.3" y="146.35" class="st3">3</text>		</g>
		<g id="shape120-228" transform="translate(256.346,-63.1622)">
			<title>Sheet.120</title>
			<path d="M0 134.03 L0 153.87" class="st5" />
		</g>
		<g id="shape121-231" transform="translate(341.385,-63.1622)">
			<title>Sheet.121</title>
			<path d="M0 134.03 L0 153.87" class="st5" />
		</g>
		<g id="shape122-234" transform="translate(86.2673,-63.1622)">
			<title>Sheet.122</title>
			<rect x="0" y="134.028" width="340.157" height="19.8425" class="st6" />
			<rect x="0" y="134.028" width="340.157" height="19.8425" class="st5" />
		</g>
		<g id="shape123-237" transform="translate(86.2673,-83.0047)">
			<title>Sheet.123</title>
			<desc>127</desc>
			
			
			<text x="0.66" y="151.42" class="st1">127</text>		</g>
		<g id="shape124-239" transform="translate(162.803,-83.0047)">
			<title>Sheet.124</title>
			<desc>96</desc>
			
			
			<text x="0" y="151.42" class="st1">96</text>		</g>
		<g id="shape125-241" transform="translate(171.838,-83.0047)">
			<title>Sheet.125</title>
			<desc>95</desc>
			
			
			<text x="2.07" y="151.42" class="st1">95</text>		</g>
		<g id="shape126-243" transform="translate(245.539,-83.0047)">
			<title>Sheet.126</title>
			<desc>64</desc>
			
			
			<text x="2.07" y="151.42" class="st1">64</text>		</g>
		<g id="shape127-245" transform="translate(256.346,-83.0047)">
			<title>Sheet.127</title>
			<desc>63</desc>
			
			
			<text x="2.07" y="151.42" class="st1">63</text>		</g>
		<g id="shape128-247" transform="translate(330.578,-83.0047)">
			<title>Sheet.128</title>
			<desc>32</desc>
			
			
			<text x="2.07" y="151.42" class="st1">32</text>		</g>
		<g id="shape129-249" transform="translate(341.385,-83.0047)">
			<title>Sheet.129</title>
			<desc>31</desc>
			
			
			<text x="2.07" y="151.42" class="st1">31</text>		</g>
		<g id="shape130-251" transform="translate(421.021,-83.0047)">
			<title>Sheet.130</title>
			<desc>0</desc>
			
			
			<text x="1.03" y="151.42" class="st1">0</text>		</g>
		<g id="shape131-253" transform="translate(171.976,-63.1622)">
			<title>Sheet.131</title>
			<path d="M0 134.03 L0 153.87" class="st5" />
		</g>
		<g id="shape132-256" transform="translate(25.3224,-63.1622)">
			<title>Sheet.132</title>
			<desc>4 x 32-bit lanes</desc>
			
			
			<rect x="0" y="134.028" width="59.5276" height="19.8425" class="st2" />
			<text x="1" y="146.35" class="st3">4 x 32-bit lanes</text>		</g>
		<g id="shape133-259" transform="translate(256.346,-94.3433)">
			<title>Sheet.133</title>
			<desc>0</desc>
			
			
			<rect x="0" y="134.028" width="170.079" height="19.8425" class="st4" />
			<text x="82.81" y="146.35" class="st3">0</text>		</g>
		<g id="shape134-262" transform="translate(86.2673,-94.3433)">
			<title>Sheet.134</title>
			<desc>1</desc>
			
			
			<rect x="0" y="134.028" width="170.079" height="19.8425" class="st4" />
			<text x="82.81" y="146.35" class="st3">1</text>		</g>
		<g id="shape135-265" transform="translate(256.346,-94.3433)">
			<title>Sheet.135</title>
			<path d="M0 134.03 L0 153.87" class="st5" />
		</g>
		<g id="shape136-268" transform="translate(86.2673,-94.3433)">
			<title>Sheet.136</title>
			<rect x="0" y="134.028" width="340.157" height="19.8425" class="st6" />
			<rect x="0" y="134.028" width="340.157" height="19.8425" class="st5" />
		</g>
		<g id="shape137-271" transform="translate(86.2673,-114.186)">
			<title>Sheet.137</title>
			<desc>127</desc>
			
			
			<text x="0.66" y="151.42" class="st1">127</text>		</g>
		<g id="shape138-273" transform="translate(245.539,-114.186)">
			<title>Sheet.138</title>
			<desc>64</desc>
			
			
			<text x="2.07" y="151.42" class="st1">64</text>		</g>
		<g id="shape139-275" transform="translate(256.346,-114.186)">
			<title>Sheet.139</title>
			<desc>63</desc>
			
			
			<text x="2.07" y="151.42" class="st1">63</text>		</g>
		<g id="shape140-277" transform="translate(421.021,-114.186)">
			<title>Sheet.140</title>
			<desc>0</desc>
			
			
			<text x="1.03" y="151.42" class="st1">0</text>		</g>
		<g id="shape141-279" transform="translate(25.3224,-94.3433)">
			<title>Sheet.141</title>
			<desc>2 x 64-bit lanes</desc>
			
			
			<rect x="0" y="134.028" width="59.5276" height="19.8425" class="st2" />
			<text x="1" y="146.35" class="st3">2 x 64-bit lanes</text>		</g>
		<g id="shape142-282" transform="translate(85.9449,-145.367)">
			<title>Sheet.142</title>
			<desc>127</desc>
			
			
			<text x="0.66" y="151.42" class="st1">127</text>		</g>
		<g id="shape143-284" transform="translate(117.126,-145.367)">
			<title>Sheet.143</title>
			<desc>112</desc>
			
			
			<text x="0" y="151.42" class="st1">112</text>		</g>
		<g id="shape144-286" transform="translate(128.465,-145.367)">
			<title>Sheet.144</title>
			<desc>111</desc>
			
			
			<text x="2.2" y="151.42" class="st1">111</text>		</g>
		<g id="shape145-288" transform="translate(162.48,-145.367)">
			<title>Sheet.145</title>
			<desc>96</desc>
			
			
			<text x="0" y="151.42" class="st1">96</text>		</g>
		<g id="shape146-290" transform="translate(171.516,-145.367)">
			<title>Sheet.146</title>
			<desc>95</desc>
			
			
			<text x="2.07" y="151.42" class="st1">95</text>		</g>
		<g id="shape147-292" transform="translate(204.498,-145.367)">
			<title>Sheet.147</title>
			<desc>80</desc>
			
			
			<text x="1.17" y="151.42" class="st1">80</text>		</g>
		<g id="shape148-294" transform="translate(214.035,-145.367)">
			<title>Sheet.148</title>
			<desc>79</desc>
			
			
			<text x="2.07" y="151.42" class="st1">79</text>		</g>
		<g id="shape149-296" transform="translate(245.217,-145.367)">
			<title>Sheet.149</title>
			<desc>64</desc>
			
			
			<text x="2.07" y="151.42" class="st1">64</text>		</g>
		<g id="shape150-298" transform="translate(256.024,-145.367)">
			<title>Sheet.150</title>
			<desc>63</desc>
			
			
			<text x="2.07" y="151.42" class="st1">63</text>		</g>
		<g id="shape151-300" transform="translate(288.268,-145.367)">
			<title>Sheet.151</title>
			<desc>48</desc>
			
			
			<text x="2.07" y="151.42" class="st1">48</text>		</g>
		<g id="shape152-302" transform="translate(299.075,-145.367)">
			<title>Sheet.152</title>
			<desc>47</desc>
			
			
			<text x="2.07" y="151.42" class="st1">47</text>		</g>
		<g id="shape153-304" transform="translate(330.256,-145.367)">
			<title>Sheet.153</title>
			<desc>32</desc>
			
			
			<text x="2.07" y="151.42" class="st1">32</text>		</g>
		<g id="shape154-306" transform="translate(341.063,-145.367)">
			<title>Sheet.154</title>
			<desc>31</desc>
			
			
			<text x="2.07" y="151.42" class="st1">31</text>		</g>
		<g id="shape155-308" transform="translate(372.244,-145.367)">
			<title>Sheet.155</title>
			<desc>16</desc>
			
			
			<text x="2.07" y="151.42" class="st1">16</text>		</g>
		<g id="shape156-310" transform="translate(383.051,-145.367)">
			<title>Sheet.156</title>
			<desc>15</desc>
			
			
			<text x="1.27" y="151.42" class="st1">15</text>		</g>
		<g id="shape157-312" transform="translate(420.699,-145.367)">
			<title>Sheet.157</title>
			<desc>0</desc>
			
			
			<text x="1.03" y="151.42" class="st1">0</text>		</g>
		<g id="shape158-314" transform="translate(0.5,-125.524)">
			<title>Sheet.158</title>
			<desc>128-bit NEON register</desc>
			
			
			<rect x="0" y="134.028" width="84.0276" height="19.8425" class="st2" />
			<text x="1" y="146.35" class="st3">128-bit NEON register</text>		</g>
		<g id="shape159-317" transform="translate(85.9449,-125.524)">
			<title>Sheet.159</title>
			<rect x="0" y="134.028" width="340.157" height="19.8425" class="st7" />
		</g>
	</g>
</svg>
